<svg xmlns="http://www.w3.org/2000/svg" xmlns:xlink="http://www.w3.org/1999/xlink" version="1.1" x="0px" y="0px" viewBox="0 0 90 112.5" enable-background="new 0 0 90 90" xml:space="preserve"><g><circle cx="27.4005127" cy="21.6315918" r="0.7640381"/><path d="M77.588623,16.4394531H12.4104004c-0.6269531,0-1.1367188,0.5097656-1.1367188,1.1367188v9.65625h67.4526367v-9.65625   C78.7263184,16.9492188,78.2155762,16.4394531,77.588623,16.4394531z M18.5427246,24.3955078   c-1.5239258,0-2.7636719-1.2402344-2.7636719-2.7636719c0-1.5244141,1.2397461-2.7646484,2.7636719-2.7646484   s2.7641602,1.2402344,2.7641602,2.7646484C21.3068848,23.1552734,20.0666504,24.3955078,18.5427246,24.3955078z    M27.4006348,24.3955078c-1.5239258,0-2.7641602-1.2402344-2.7641602-2.7636719   c0-1.5244141,1.2402344-2.7646484,2.7641602-2.7646484s2.7636719,1.2402344,2.7636719,2.7646484   C30.1643066,23.1552734,28.9245605,24.3955078,27.4006348,24.3955078z M39.0407715,22.6318359h-4.8178711v-2h4.8178711V22.6318359z   "/><circle cx="18.5428467" cy="21.6315918" r="0.7640381"/><path d="M11.2736816,72.4238281c0,0.6269531,0.5097656,1.1367188,1.1367188,1.1367188H77.588623   c0.6269531,0,1.1376953-0.5097656,1.1376953-1.1367188V29.2324219H11.2736816V72.4238281z M52.9489746,43.3349609   c-0.3535156-0.4248047-0.2958984-1.0546875,0.1279297-1.4091797c0.4257813-0.3525391,1.0556641-0.2958984,1.4091797,0.1279297   l7.2890625,8.7431641c0.3085938,0.3710938,0.3085938,0.9101563,0,1.28125l-7.2890625,8.7441406   c-0.1982422,0.2373047-0.4824219,0.359375-0.7695313,0.359375c-0.2255859,0-0.4521484-0.0761719-0.6396484-0.2314453   c-0.4238281-0.3544922-0.4814453-0.984375-0.1279297-1.4091797L59.704834,51.4375L52.9489746,43.3349609z M38.592041,63.1943359   l8.4545898-24.1738281C47.2302246,38.5,47.798584,38.2246094,48.3210449,38.40625   c0.5214844,0.1826172,0.7958984,0.7529297,0.6142578,1.2744141l-8.4555664,24.1738281   c-0.144043,0.4121094-0.5307617,0.6699219-0.9438477,0.6699219c-0.109375,0-0.2207031-0.0175781-0.3300781-0.0556641   C38.6843262,64.2861328,38.4094238,63.7158203,38.592041,63.1943359z M28.2248535,50.796875l7.2890625-8.7431641   c0.3535156-0.4248047,0.9833984-0.4804688,1.4082031-0.1279297c0.4243164,0.3544922,0.4814453,0.984375,0.1279297,1.4091797   L30.2946777,51.4375l6.7553711,8.1035156c0.3535156,0.4248047,0.2963867,1.0546875-0.1279297,1.4091797   c-0.1870117,0.1552734-0.4140625,0.2314453-0.6396484,0.2314453c-0.2866211,0-0.5708008-0.1220703-0.7685547-0.359375   l-7.2890625-8.7441406C27.9157715,51.7070313,27.9157715,51.1679688,28.2248535,50.796875z"/></g><text x="0" y="105" fill="#000000" font-size="5px" font-weight="bold" font-family="'Helvetica Neue', Helvetica, Arial-Unicode, Arial, Sans-serif">Created by iconcheese</text><text x="0" y="110" fill="#000000" font-size="5px" font-weight="bold" font-family="'Helvetica Neue', Helvetica, Arial-Unicode, Arial, Sans-serif">from the Noun Project</text></svg>